<svg xmlns="http://www.w3.org/2000/svg" xmlns:xlink="http://www.w3.org/1999/xlink" width="450" zoomAndPan="magnify" viewBox="0 0 337.5 56.249996" height="75" preserveAspectRatio="xMidYMid meet" version="1.0"><defs><g/></defs><g fill="#ffffff" fill-opacity="1"><g transform="translate(29.605581, 41.827403)"><g><path d="M 10.671875 -1.46875 L 10.671875 -1.875 C 10.671875 -2.425781 10.707031 -2.867188 10.78125 -3.203125 C 10.863281 -3.546875 10.953125 -3.972656 11.046875 -4.484375 C 11.148438 -5.003906 11.226562 -5.800781 11.28125 -6.875 C 11.351562 -8.03125 11.398438 -9.414062 11.421875 -11.03125 C 11.453125 -12.644531 11.46875 -14.296875 11.46875 -15.984375 C 11.46875 -17.679688 11.445312 -19.34375 11.40625 -20.96875 C 11.375 -22.601562 11.332031 -24.007812 11.28125 -25.1875 C 11.226562 -26.21875 11.015625 -26.992188 10.640625 -27.515625 C 10.265625 -28.046875 9.75 -28.347656 9.09375 -28.421875 C 8.59375 -28.492188 8.34375 -28.59375 8.34375 -28.71875 C 8.34375 -28.894531 8.519531 -29.082031 8.875 -29.28125 C 9.394531 -29.632812 9.96875 -29.890625 10.59375 -30.046875 C 11.226562 -30.210938 11.859375 -30.296875 12.484375 -30.296875 C 13.535156 -30.296875 14.539062 -30.117188 15.5 -29.765625 C 16.46875 -29.421875 17.285156 -28.957031 17.953125 -28.375 C 18.617188 -27.800781 19 -27.191406 19.09375 -26.546875 C 19.125 -26.460938 19.140625 -26.382812 19.140625 -26.3125 C 19.140625 -26.238281 19.140625 -26.175781 19.140625 -26.125 C 19.140625 -25.769531 19.066406 -25.5 18.921875 -25.3125 C 18.785156 -25.125 18.640625 -24.910156 18.484375 -24.671875 C 18.335938 -24.441406 18.242188 -24.050781 18.203125 -23.5 C 18.171875 -23.039062 18.140625 -22.585938 18.109375 -22.140625 C 18.085938 -21.691406 18.066406 -21.242188 18.046875 -20.796875 C 18.015625 -20.367188 18 -19.929688 18 -19.484375 C 18 -19.046875 17.988281 -18.617188 17.96875 -18.203125 C 20.019531 -18.203125 21.90625 -18.035156 23.625 -17.703125 C 25.34375 -17.378906 26.828125 -16.96875 28.078125 -16.46875 C 29.335938 -15.96875 30.28125 -15.441406 30.90625 -14.890625 C 31.457031 -14.410156 31.847656 -13.910156 32.078125 -13.390625 C 32.316406 -12.878906 32.4375 -12.375 32.4375 -11.875 C 32.4375 -10.945312 32.078125 -10.140625 31.359375 -9.453125 C 30.648438 -8.765625 29.796875 -8.421875 28.796875 -8.421875 C 28.242188 -8.421875 27.6875 -8.546875 27.125 -8.796875 C 26.5625 -9.046875 26.003906 -9.457031 25.453125 -10.03125 C 24.898438 -10.632812 24.441406 -11.179688 24.078125 -11.671875 C 23.710938 -12.160156 23.316406 -12.664062 22.890625 -13.1875 C 22.460938 -13.71875 21.875 -14.332031 21.125 -15.03125 C 20.375 -15.738281 19.320312 -16.59375 17.96875 -17.59375 C 17.945312 -17.09375 17.9375 -16.597656 17.9375 -16.109375 C 17.9375 -15.617188 17.9375 -15.132812 17.9375 -14.65625 C 17.9375 -11.625 18.003906 -9.023438 18.140625 -6.859375 C 18.273438 -4.691406 18.34375 -2.96875 18.34375 -1.6875 C 18.34375 -1.507812 18.34375 -1.328125 18.34375 -1.140625 C 18.34375 -0.953125 18.332031 -0.785156 18.3125 -0.640625 C 18.207031 0.515625 17.757812 1.429688 16.96875 2.109375 C 16.1875 2.785156 15.316406 3.125 14.359375 3.125 C 13.453125 3.125 12.617188 2.757812 11.859375 2.03125 C 11.097656 1.300781 10.703125 0.132812 10.671875 -1.46875 Z M 10.671875 -1.46875 "/></g></g></g><g fill="#ffffff" fill-opacity="1"><g transform="translate(59.674953, 41.827403)"><g><path d="M 26.84375 -6.5 C 23.78125 -5.125 20.75 -3.882812 17.75 -2.78125 C 14.757812 -1.675781 11.976562 -0.757812 9.40625 -0.03125 C 8.925781 0.09375 8.566406 0.253906 8.328125 0.453125 C 8.085938 0.648438 7.878906 0.820312 7.703125 0.96875 C 7.523438 1.125 7.25 1.203125 6.875 1.203125 C 6.425781 1.203125 5.953125 0.953125 5.453125 0.453125 C 4.953125 -0.046875 4.484375 -0.703125 4.046875 -1.515625 C 3.609375 -2.335938 3.25 -3.210938 2.96875 -4.140625 C 2.695312 -5.066406 2.5625 -5.953125 2.5625 -6.796875 C 2.5625 -7.753906 2.757812 -8.546875 3.15625 -9.171875 C 3.382812 -9.472656 3.546875 -9.625 3.640625 -9.625 C 3.765625 -9.625 3.878906 -9.4375 3.984375 -9.0625 C 4.179688 -8.226562 4.5625 -7.71875 5.125 -7.53125 C 5.695312 -7.34375 6.429688 -7.226562 7.328125 -7.1875 C 7.523438 -7.1875 7.738281 -7.175781 7.96875 -7.15625 C 8.195312 -7.144531 8.4375 -7.140625 8.6875 -7.140625 C 9.9375 -10.171875 11 -13.144531 11.875 -16.0625 C 12.757812 -18.988281 13.472656 -21.617188 14.015625 -23.953125 C 14.066406 -24.222656 14.109375 -24.476562 14.140625 -24.71875 C 14.179688 -24.957031 14.203125 -25.175781 14.203125 -25.375 C 14.203125 -26.625 13.691406 -27.476562 12.671875 -27.9375 C 12.296875 -28.082031 12.109375 -28.207031 12.109375 -28.3125 C 12.109375 -28.40625 12.304688 -28.53125 12.703125 -28.6875 C 13.304688 -28.9375 14 -29.0625 14.78125 -29.0625 C 15.78125 -29.0625 16.796875 -28.882812 17.828125 -28.53125 C 18.867188 -28.175781 19.832031 -27.722656 20.71875 -27.171875 C 21.613281 -26.628906 22.332031 -26.066406 22.875 -25.484375 C 23.414062 -24.910156 23.6875 -24.398438 23.6875 -23.953125 C 23.6875 -23.921875 23.675781 -23.890625 23.65625 -23.859375 C 23.644531 -23.835938 23.640625 -23.804688 23.640625 -23.765625 C 23.566406 -23.429688 23.410156 -23.195312 23.171875 -23.0625 C 22.929688 -22.925781 22.675781 -22.78125 22.40625 -22.625 C 22.132812 -22.476562 21.867188 -22.191406 21.609375 -21.765625 C 20.234375 -19.335938 18.71875 -16.910156 17.0625 -14.484375 C 15.414062 -12.066406 13.585938 -9.632812 11.578125 -7.1875 C 13.660156 -7.226562 15.988281 -7.34375 18.5625 -7.53125 C 21.144531 -7.71875 23.65625 -7.925781 26.09375 -8.15625 C 25.507812 -9.332031 24.867188 -10.476562 24.171875 -11.59375 C 23.472656 -12.707031 22.769531 -13.691406 22.0625 -14.546875 C 21.863281 -14.773438 21.765625 -14.953125 21.765625 -15.078125 C 21.765625 -15.171875 21.828125 -15.21875 21.953125 -15.21875 C 22.109375 -15.21875 22.3125 -15.179688 22.5625 -15.109375 C 24.6875 -14.585938 26.609375 -13.835938 28.328125 -12.859375 C 30.046875 -11.878906 31.46875 -10.773438 32.59375 -9.546875 C 33.71875 -8.316406 34.457031 -7.066406 34.8125 -5.796875 C 34.988281 -5.191406 35.078125 -4.585938 35.078125 -3.984375 C 35.078125 -2.660156 34.679688 -1.640625 33.890625 -0.921875 C 33.097656 -0.203125 32.238281 0.15625 31.3125 0.15625 C 30.613281 0.15625 29.96875 -0.0546875 29.375 -0.484375 C 28.789062 -0.910156 28.398438 -1.585938 28.203125 -2.515625 C 28.066406 -3.117188 27.878906 -3.757812 27.640625 -4.4375 C 27.410156 -5.113281 27.144531 -5.800781 26.84375 -6.5 Z M 26.84375 -6.5 "/></g></g></g><g fill="#ffffff" fill-opacity="1"><g transform="translate(89.744324, 41.827403)"><g/></g></g><g fill="#ffffff" fill-opacity="1"><g transform="translate(96.808416, 41.827403)"><g><path d="M 34.65625 -20.75 L 34.65625 -20.71875 C 34.613281 -20.21875 34.457031 -19.863281 34.1875 -19.65625 C 33.925781 -19.457031 33.640625 -19.25 33.328125 -19.03125 C 33.015625 -18.820312 32.71875 -18.441406 32.4375 -17.890625 C 31.34375 -15.566406 30.035156 -13.363281 28.515625 -11.28125 C 26.992188 -9.195312 25.191406 -7.269531 23.109375 -5.5 C 21.035156 -3.738281 18.59375 -2.164062 15.78125 -0.78125 C 12.976562 0.59375 9.734375 1.726562 6.046875 2.625 C 5.648438 2.726562 5.363281 2.78125 5.1875 2.78125 C 5.132812 2.78125 5.109375 2.769531 5.109375 2.75 C 5.109375 2.695312 5.347656 2.519531 5.828125 2.21875 C 10.691406 -0.914062 14.644531 -4.425781 17.6875 -8.3125 C 20.726562 -12.195312 23.003906 -16.421875 24.515625 -20.984375 C 24.585938 -21.203125 24.625 -21.375 24.625 -21.5 C 24.625 -21.601562 24.546875 -21.65625 24.390625 -21.65625 C 24.347656 -21.65625 24.28125 -21.644531 24.1875 -21.625 C 24.101562 -21.613281 24 -21.597656 23.875 -21.578125 C 22.570312 -21.378906 21.40625 -21.191406 20.375 -21.015625 C 19.34375 -20.835938 18.34375 -20.664062 17.375 -20.5 C 16.414062 -20.34375 15.394531 -20.148438 14.3125 -19.921875 C 13.238281 -19.703125 12 -19.441406 10.59375 -19.140625 C 9.84375 -18.984375 9.285156 -18.804688 8.921875 -18.609375 C 8.566406 -18.410156 8.25 -18.234375 7.96875 -18.078125 C 7.695312 -17.929688 7.332031 -17.84375 6.875 -17.8125 C 6.875 -17.8125 6.863281 -17.8125 6.84375 -17.8125 C 6.394531 -17.8125 5.914062 -18.125 5.40625 -18.75 C 4.90625 -19.382812 4.476562 -20.164062 4.125 -21.09375 C 3.78125 -22.019531 3.609375 -22.929688 3.609375 -23.828125 C 3.609375 -23.929688 3.609375 -24.023438 3.609375 -24.109375 C 3.609375 -24.203125 3.617188 -24.296875 3.640625 -24.390625 C 3.671875 -24.796875 3.734375 -25 3.828125 -25 C 3.929688 -25 4.082031 -24.875 4.28125 -24.625 C 4.738281 -24.09375 5.25 -23.726562 5.8125 -23.53125 C 6.375 -23.332031 7.117188 -23.234375 8.046875 -23.234375 C 8.171875 -23.234375 8.304688 -23.238281 8.453125 -23.25 C 8.609375 -23.257812 8.773438 -23.265625 8.953125 -23.265625 C 10.253906 -23.316406 11.710938 -23.398438 13.328125 -23.515625 C 14.941406 -23.628906 16.625 -23.753906 18.375 -23.890625 C 20.132812 -24.023438 21.851562 -24.171875 23.53125 -24.328125 C 24.1875 -24.398438 24.644531 -24.523438 24.90625 -24.703125 C 25.164062 -24.878906 25.390625 -25.050781 25.578125 -25.21875 C 25.765625 -25.394531 26.0625 -25.507812 26.46875 -25.5625 L 26.65625 -25.5625 C 27.101562 -25.5625 27.664062 -25.4375 28.34375 -25.1875 C 29.019531 -24.9375 29.722656 -24.609375 30.453125 -24.203125 C 31.179688 -23.804688 31.863281 -23.390625 32.5 -22.953125 C 33.132812 -22.515625 33.648438 -22.09375 34.046875 -21.6875 C 34.453125 -21.289062 34.65625 -20.976562 34.65625 -20.75 Z M 28.609375 -29.09375 C 28.910156 -29.144531 29.210938 -29.1875 29.515625 -29.21875 C 29.816406 -29.257812 30.113281 -29.28125 30.40625 -29.28125 C 31.257812 -29.28125 32.070312 -29.140625 32.84375 -28.859375 C 33.625 -28.585938 34.28125 -28.140625 34.8125 -27.515625 C 35.082031 -27.210938 35.269531 -26.914062 35.375 -26.625 C 35.476562 -26.34375 35.53125 -26.066406 35.53125 -25.796875 C 35.53125 -25.265625 35.347656 -24.820312 34.984375 -24.46875 C 34.617188 -24.125 34.222656 -23.953125 33.796875 -23.953125 C 33.242188 -23.953125 32.804688 -24.203125 32.484375 -24.703125 C 31.503906 -26.179688 30.1875 -27.429688 28.53125 -28.453125 C 28.257812 -28.609375 28.125 -28.734375 28.125 -28.828125 C 28.125 -28.910156 28.285156 -29 28.609375 -29.09375 Z M 35.9375 -28.34375 C 35.457031 -28.34375 34.992188 -28.582031 34.546875 -29.0625 C 34.046875 -29.632812 33.367188 -30.179688 32.515625 -30.703125 C 31.660156 -31.234375 30.769531 -31.664062 29.84375 -32 C 29.46875 -32.144531 29.28125 -32.242188 29.28125 -32.296875 C 29.28125 -32.367188 29.429688 -32.476562 29.734375 -32.625 C 30.640625 -32.976562 31.59375 -33.15625 32.59375 -33.15625 C 33.289062 -33.15625 33.972656 -33.0625 34.640625 -32.875 C 35.304688 -32.6875 35.890625 -32.378906 36.390625 -31.953125 C 36.796875 -31.628906 37.078125 -31.296875 37.234375 -30.953125 C 37.398438 -30.617188 37.484375 -30.289062 37.484375 -29.96875 C 37.484375 -29.507812 37.332031 -29.125 37.03125 -28.8125 C 36.726562 -28.5 36.363281 -28.34375 35.9375 -28.34375 Z M 35.9375 -28.34375 "/></g></g></g><g fill="#ffffff" fill-opacity="1"><g transform="translate(126.877784, 41.827403)"><g><path d="M 34.015625 -16.125 L 34.015625 -16.09375 C 34.015625 -15.738281 33.890625 -15.484375 33.640625 -15.328125 C 33.390625 -15.179688 33.109375 -15.023438 32.796875 -14.859375 C 32.484375 -14.703125 32.226562 -14.382812 32.03125 -13.90625 C 30.726562 -10.800781 29.003906 -8.15625 26.859375 -5.96875 C 24.710938 -3.789062 22 -1.992188 18.71875 -0.578125 C 15.4375 0.835938 11.425781 1.929688 6.6875 2.703125 C 6.59375 2.734375 6.5 2.75 6.40625 2.75 C 6.320312 2.75 6.253906 2.75 6.203125 2.75 C 6.003906 2.75 5.90625 2.722656 5.90625 2.671875 C 5.90625 2.566406 6.101562 2.425781 6.5 2.25 C 9.15625 1.070312 11.503906 -0.289062 13.546875 -1.84375 C 15.585938 -3.394531 17.347656 -5.035156 18.828125 -6.765625 C 20.304688 -8.492188 21.507812 -10.21875 22.4375 -11.9375 C 23.363281 -13.65625 24.054688 -15.265625 24.515625 -16.765625 C 24.585938 -16.960938 24.625 -17.125 24.625 -17.25 C 24.625 -17.476562 24.472656 -17.59375 24.171875 -17.59375 C 24.148438 -17.59375 24.097656 -17.585938 24.015625 -17.578125 C 23.941406 -17.566406 23.878906 -17.5625 23.828125 -17.5625 C 22.078125 -17.332031 20.457031 -17.09375 18.96875 -16.84375 C 17.476562 -16.59375 16.023438 -16.316406 14.609375 -16.015625 C 13.191406 -15.710938 11.726562 -15.375 10.21875 -15 C 9.644531 -14.851562 9.203125 -14.632812 8.890625 -14.34375 C 8.578125 -14.050781 8.207031 -13.90625 7.78125 -13.90625 L 7.671875 -13.90625 C 6.960938 -13.9375 6.3125 -14.273438 5.71875 -14.921875 C 5.132812 -15.578125 4.671875 -16.347656 4.328125 -17.234375 C 3.992188 -18.128906 3.828125 -18.953125 3.828125 -19.703125 C 3.828125 -20.046875 3.867188 -20.34375 3.953125 -20.59375 C 4.046875 -20.945312 4.144531 -21.125 4.25 -21.125 C 4.375 -21.125 4.507812 -20.988281 4.65625 -20.71875 C 5.03125 -20.132812 5.460938 -19.75 5.953125 -19.5625 C 6.441406 -19.375 7.125 -19.28125 8 -19.28125 C 8.226562 -19.28125 8.476562 -19.28125 8.75 -19.28125 C 9.03125 -19.28125 9.332031 -19.296875 9.65625 -19.328125 C 11.382812 -19.421875 13.453125 -19.5625 15.859375 -19.75 C 18.265625 -19.9375 20.910156 -20.15625 23.796875 -20.40625 C 24.367188 -20.457031 24.816406 -20.601562 25.140625 -20.84375 C 25.472656 -21.082031 25.765625 -21.3125 26.015625 -21.53125 C 26.265625 -21.757812 26.578125 -21.875 26.953125 -21.875 L 27.03125 -21.875 C 27.601562 -21.875 28.285156 -21.648438 29.078125 -21.203125 C 29.867188 -20.753906 30.640625 -20.203125 31.390625 -19.546875 C 32.140625 -18.898438 32.765625 -18.257812 33.265625 -17.625 C 33.765625 -17 34.015625 -16.5 34.015625 -16.125 Z M 12.671875 -27.328125 L 13.265625 -27.328125 C 13.765625 -27.328125 14.382812 -27.34375 15.125 -27.375 C 15.863281 -27.414062 16.632812 -27.46875 17.4375 -27.53125 C 18.238281 -27.59375 19.003906 -27.65625 19.734375 -27.71875 C 20.460938 -27.78125 21.066406 -27.851562 21.546875 -27.9375 C 22.066406 -28.007812 22.460938 -28.09375 22.734375 -28.1875 C 23.015625 -28.289062 23.289062 -28.390625 23.5625 -28.484375 C 23.84375 -28.585938 24.222656 -28.65625 24.703125 -28.6875 C 24.773438 -28.707031 24.851562 -28.71875 24.9375 -28.71875 C 25.03125 -28.71875 25.113281 -28.71875 25.1875 -28.71875 C 25.988281 -28.71875 26.617188 -28.503906 27.078125 -28.078125 C 27.546875 -27.648438 27.78125 -27.1875 27.78125 -26.6875 C 27.78125 -26.21875 27.539062 -25.757812 27.0625 -25.3125 C 26.59375 -24.875 25.816406 -24.59375 24.734375 -24.46875 C 23.960938 -24.394531 22.929688 -24.296875 21.640625 -24.171875 C 20.347656 -24.046875 18.992188 -23.9375 17.578125 -23.84375 C 16.160156 -23.757812 14.863281 -23.71875 13.6875 -23.71875 C 13.40625 -23.71875 13.144531 -23.71875 12.90625 -23.71875 C 12.675781 -23.71875 12.445312 -23.734375 12.21875 -23.765625 C 11.3125 -23.804688 10.546875 -24.039062 9.921875 -24.46875 C 9.296875 -24.894531 8.828125 -25.410156 8.515625 -26.015625 C 8.203125 -26.617188 8.046875 -27.207031 8.046875 -27.78125 C 8.046875 -27.800781 8.046875 -27.8125 8.046875 -27.8125 C 8.046875 -27.8125 8.046875 -27.828125 8.046875 -27.859375 L 8.046875 -28.046875 C 8.046875 -28.421875 8.082031 -28.609375 8.15625 -28.609375 C 8.1875 -28.609375 8.347656 -28.484375 8.640625 -28.234375 C 9.066406 -27.878906 9.601562 -27.640625 10.25 -27.515625 C 10.90625 -27.390625 11.710938 -27.328125 12.671875 -27.328125 Z M 12.671875 -27.328125 "/></g></g></g><g fill="#ffffff" fill-opacity="1"><g transform="translate(156.947151, 41.827403)"><g><path d="M 35.109375 -19.84375 L 35.109375 -19.625 C 35.109375 -19.269531 35.007812 -19.003906 34.8125 -18.828125 C 34.613281 -18.660156 34.378906 -18.441406 34.109375 -18.171875 C 33.847656 -17.910156 33.617188 -17.492188 33.421875 -16.921875 C 32.492188 -14.234375 31.410156 -11.863281 30.171875 -9.8125 C 28.929688 -7.757812 27.40625 -5.96875 25.59375 -4.4375 C 23.789062 -2.90625 21.578125 -1.609375 18.953125 -0.546875 C 16.335938 0.515625 13.191406 1.410156 9.515625 2.140625 C 9.441406 2.171875 9.367188 2.1875 9.296875 2.1875 C 9.234375 2.1875 9.179688 2.1875 9.140625 2.1875 C 8.929688 2.1875 8.828125 2.144531 8.828125 2.0625 C 8.828125 1.96875 9.019531 1.84375 9.40625 1.6875 C 12.15625 0.488281 14.488281 -0.910156 16.40625 -2.515625 C 18.320312 -4.117188 19.90625 -5.859375 21.15625 -7.734375 C 22.414062 -9.617188 23.398438 -11.578125 24.109375 -13.609375 C 24.828125 -15.640625 25.335938 -17.671875 25.640625 -19.703125 C 25.660156 -19.828125 25.675781 -19.9375 25.6875 -20.03125 C 25.707031 -20.132812 25.71875 -20.222656 25.71875 -20.296875 C 25.71875 -20.648438 25.453125 -20.828125 24.921875 -20.828125 L 24.625 -20.828125 C 24.34375 -20.828125 23.820312 -20.785156 23.0625 -20.703125 C 22.300781 -20.628906 21.4375 -20.539062 20.46875 -20.4375 C 19.5 -20.34375 18.59375 -20.234375 17.75 -20.109375 C 16.914062 -19.984375 16.285156 -19.882812 15.859375 -19.8125 C 15.535156 -19.738281 15.195312 -19.703125 14.84375 -19.703125 C 14.445312 -19.703125 14.039062 -19.773438 13.625 -19.921875 C 13.207031 -20.078125 12.789062 -20.34375 12.375 -20.71875 L 12.375 -19.171875 C 12.375 -17.972656 12.390625 -16.710938 12.421875 -15.390625 C 12.460938 -14.078125 12.484375 -12.894531 12.484375 -11.84375 L 12.484375 -11.796875 C 12.484375 -10.898438 12.097656 -10.1875 11.328125 -9.65625 C 10.566406 -9.132812 9.722656 -8.875 8.796875 -8.875 C 7.941406 -8.875 7.171875 -9.132812 6.484375 -9.65625 C 5.796875 -10.1875 5.4375 -11.039062 5.40625 -12.21875 L 5.40625 -12.484375 C 5.40625 -12.804688 5.425781 -13.09375 5.46875 -13.34375 C 5.507812 -13.59375 5.539062 -13.894531 5.5625 -14.25 C 5.582031 -14.601562 5.59375 -15.09375 5.59375 -15.71875 C 5.59375 -16.144531 5.597656 -16.523438 5.609375 -16.859375 C 5.628906 -17.203125 5.640625 -17.535156 5.640625 -17.859375 C 5.640625 -18.128906 5.628906 -18.425781 5.609375 -18.75 C 5.597656 -19.082031 5.582031 -19.445312 5.5625 -19.84375 C 5.539062 -20.820312 5.390625 -21.523438 5.109375 -21.953125 C 4.835938 -22.378906 4.410156 -22.707031 3.828125 -22.9375 C 3.535156 -23.0625 3.390625 -23.132812 3.390625 -23.15625 C 3.390625 -23.1875 3.515625 -23.285156 3.765625 -23.453125 C 4.484375 -23.859375 5.332031 -24.0625 6.3125 -24.0625 C 7.113281 -24.0625 7.953125 -23.921875 8.828125 -23.640625 C 9.710938 -23.367188 10.515625 -22.96875 11.234375 -22.4375 C 11.816406 -22.488281 12.488281 -22.550781 13.25 -22.625 C 14.019531 -22.707031 14.828125 -22.785156 15.671875 -22.859375 C 15.671875 -23.410156 15.664062 -23.992188 15.65625 -24.609375 C 15.644531 -25.222656 15.625 -25.84375 15.59375 -26.46875 C 15.570312 -27.195312 15.4375 -27.765625 15.1875 -28.171875 C 14.9375 -28.585938 14.484375 -28.847656 13.828125 -28.953125 C 13.359375 -29.023438 13.125 -29.109375 13.125 -29.203125 C 13.125 -29.285156 13.296875 -29.4375 13.640625 -29.65625 C 14.117188 -29.957031 14.660156 -30.171875 15.265625 -30.296875 C 15.867188 -30.421875 16.492188 -30.484375 17.140625 -30.484375 C 18.171875 -30.484375 19.171875 -30.363281 20.140625 -30.125 C 21.117188 -29.894531 21.941406 -29.609375 22.609375 -29.265625 C 23.273438 -28.929688 23.632812 -28.625 23.6875 -28.34375 C 23.707031 -28.25 23.71875 -28.125 23.71875 -27.96875 C 23.71875 -27.71875 23.65625 -27.523438 23.53125 -27.390625 C 23.40625 -27.253906 23.28125 -27.097656 23.15625 -26.921875 C 23.03125 -26.742188 22.957031 -26.453125 22.9375 -26.046875 C 22.90625 -25.597656 22.890625 -25.144531 22.890625 -24.6875 C 22.890625 -24.238281 22.890625 -23.816406 22.890625 -23.421875 C 23.242188 -23.472656 23.578125 -23.503906 23.890625 -23.515625 C 24.203125 -23.523438 24.484375 -23.546875 24.734375 -23.578125 C 25.140625 -23.597656 25.453125 -23.734375 25.671875 -23.984375 C 25.898438 -24.234375 26.117188 -24.476562 26.328125 -24.71875 C 26.546875 -24.957031 26.804688 -25.078125 27.109375 -25.078125 L 27.21875 -25.078125 C 27.71875 -25.078125 28.300781 -24.929688 28.96875 -24.640625 C 29.632812 -24.347656 30.316406 -23.984375 31.015625 -23.546875 C 31.710938 -23.109375 32.367188 -22.644531 32.984375 -22.15625 C 33.597656 -21.664062 34.097656 -21.210938 34.484375 -20.796875 C 34.878906 -20.390625 35.085938 -20.070312 35.109375 -19.84375 Z M 35.109375 -19.84375 "/></g></g></g><g fill="#ffffff" fill-opacity="1"><g transform="translate(187.016519, 41.827403)"><g><path d="M 10.34375 1.796875 L 10.1875 1.796875 C 9.738281 1.796875 9.191406 1.519531 8.546875 0.96875 C 7.910156 0.425781 7.285156 -0.28125 6.671875 -1.15625 C 6.054688 -2.039062 5.539062 -2.988281 5.125 -4 C 4.71875 -5.019531 4.515625 -5.992188 4.515625 -6.921875 C 4.515625 -7.390625 4.5625 -7.789062 4.65625 -8.125 C 4.78125 -8.570312 4.921875 -8.796875 5.078125 -8.796875 C 5.203125 -8.796875 5.351562 -8.644531 5.53125 -8.34375 C 5.832031 -7.863281 6.140625 -7.523438 6.453125 -7.328125 C 6.765625 -7.128906 7.144531 -7.03125 7.59375 -7.03125 C 7.863281 -7.03125 8.179688 -7.066406 8.546875 -7.140625 C 8.910156 -7.210938 9.332031 -7.300781 9.8125 -7.40625 C 12.195312 -7.976562 14.609375 -8.738281 17.046875 -9.6875 C 19.492188 -10.644531 21.863281 -11.738281 24.15625 -12.96875 C 26.445312 -14.195312 28.578125 -15.523438 30.546875 -16.953125 C 32.515625 -18.378906 34.210938 -19.859375 35.640625 -21.390625 C 35.691406 -21.441406 35.726562 -21.476562 35.75 -21.5 C 35.78125 -21.53125 35.804688 -21.554688 35.828125 -21.578125 C 35.972656 -21.722656 36.097656 -21.796875 36.203125 -21.796875 C 36.253906 -21.796875 36.28125 -21.757812 36.28125 -21.6875 C 36.28125 -21.59375 36.203125 -21.394531 36.046875 -21.09375 C 34.742188 -18.613281 33.378906 -16.378906 31.953125 -14.390625 C 30.523438 -12.410156 28.925781 -10.609375 27.15625 -8.984375 C 25.394531 -7.359375 23.363281 -5.835938 21.0625 -4.421875 C 18.769531 -3.003906 16.097656 -1.601562 13.046875 -0.21875 C 12.546875 0 12.1875 0.210938 11.96875 0.421875 C 11.757812 0.640625 11.601562 0.835938 11.5 1.015625 C 11.40625 1.191406 11.28125 1.347656 11.125 1.484375 C 10.976562 1.617188 10.71875 1.722656 10.34375 1.796875 Z M 20.453125 -21.203125 C 20.453125 -20.523438 20.269531 -19.910156 19.90625 -19.359375 C 19.539062 -18.804688 19.082031 -18.375 18.53125 -18.0625 C 17.976562 -17.75 17.390625 -17.59375 16.765625 -17.59375 C 16.265625 -17.59375 15.773438 -17.710938 15.296875 -17.953125 C 14.828125 -18.191406 14.414062 -18.570312 14.0625 -19.09375 C 13.5625 -19.875 12.984375 -20.707031 12.328125 -21.59375 C 11.679688 -22.488281 10.835938 -23.414062 9.796875 -24.375 C 8.753906 -25.34375 7.378906 -26.328125 5.671875 -27.328125 C 5.328125 -27.523438 5.15625 -27.664062 5.15625 -27.75 C 5.15625 -27.820312 5.414062 -27.867188 5.9375 -27.890625 C 6.257812 -27.921875 6.578125 -27.941406 6.890625 -27.953125 C 7.210938 -27.960938 7.535156 -27.96875 7.859375 -27.96875 C 9.941406 -27.96875 11.890625 -27.738281 13.703125 -27.28125 C 15.515625 -26.832031 16.945312 -26.1875 18 -25.34375 C 18.882812 -24.632812 19.515625 -23.929688 19.890625 -23.234375 C 20.265625 -22.535156 20.453125 -21.859375 20.453125 -21.203125 Z M 20.453125 -21.203125 "/></g></g></g><g fill="#ffffff" fill-opacity="1"><g transform="translate(217.085886, 41.827403)"><g><path d="M 19.328125 -16.5 L 19.328125 -16.875 C 19.328125 -16.925781 19.328125 -16.960938 19.328125 -16.984375 C 19.328125 -17.015625 19.328125 -17.039062 19.328125 -17.0625 C 19.242188 -18.59375 18.488281 -19.359375 17.0625 -19.359375 C 16.738281 -19.359375 16.363281 -19.320312 15.9375 -19.25 C 15.5625 -18.039062 15.144531 -16.695312 14.6875 -15.21875 C 14.238281 -13.738281 13.773438 -12.25 13.296875 -10.75 C 12.828125 -9.25 12.367188 -7.847656 11.921875 -6.546875 C 12.492188 -6.367188 12.984375 -6.226562 13.390625 -6.125 C 13.804688 -6.03125 14.253906 -5.921875 14.734375 -5.796875 C 14.859375 -5.765625 14.988281 -5.742188 15.125 -5.734375 C 15.269531 -5.722656 15.390625 -5.71875 15.484375 -5.71875 C 15.734375 -5.71875 15.953125 -5.769531 16.140625 -5.875 C 16.328125 -5.988281 16.523438 -6.195312 16.734375 -6.5 C 17.160156 -7.125 17.566406 -7.984375 17.953125 -9.078125 C 18.335938 -10.171875 18.660156 -11.367188 18.921875 -12.671875 C 19.191406 -13.972656 19.328125 -15.25 19.328125 -16.5 Z M 11.765625 -6.046875 C 11.515625 -5.328125 11.28125 -4.648438 11.0625 -4.015625 C 10.851562 -3.390625 10.648438 -2.851562 10.453125 -2.40625 C 9.953125 -1.15625 9.320312 -0.238281 8.5625 0.34375 C 7.8125 0.9375 7.078125 1.234375 6.359375 1.234375 C 5.179688 1.234375 4.335938 0.632812 3.828125 -0.5625 C 3.578125 -1.132812 3.453125 -1.757812 3.453125 -2.4375 C 3.453125 -3.039062 3.535156 -3.617188 3.703125 -4.171875 C 3.867188 -4.722656 4.078125 -5.195312 4.328125 -5.59375 C 4.972656 -6.65625 5.765625 -8.070312 6.703125 -9.84375 C 7.648438 -11.625 8.523438 -13.691406 9.328125 -16.046875 C 8.847656 -15.722656 8.332031 -15.367188 7.78125 -14.984375 C 7.226562 -14.597656 6.640625 -14.164062 6.015625 -13.6875 C 5.734375 -13.488281 5.457031 -13.390625 5.1875 -13.390625 C 4.632812 -13.390625 4.128906 -13.75 3.671875 -14.46875 C 3.222656 -15.195312 3 -16.113281 3 -17.21875 C 3 -17.769531 3.070312 -18.359375 3.21875 -18.984375 C 3.375 -19.609375 3.617188 -20.25 3.953125 -20.90625 C 4.046875 -21.082031 4.128906 -21.171875 4.203125 -21.171875 C 4.285156 -21.171875 4.351562 -21.109375 4.40625 -20.984375 C 4.601562 -20.503906 4.875 -20.175781 5.21875 -20 C 5.570312 -19.820312 5.988281 -19.734375 6.46875 -19.734375 C 6.71875 -19.734375 6.96875 -19.742188 7.21875 -19.765625 C 7.46875 -19.796875 7.726562 -19.835938 8 -19.890625 C 8.457031 -19.960938 8.898438 -20.039062 9.328125 -20.125 C 9.753906 -20.21875 10.164062 -20.3125 10.5625 -20.40625 C 10.738281 -21.132812 10.890625 -21.878906 11.015625 -22.640625 C 11.140625 -23.410156 11.238281 -24.195312 11.3125 -25 C 11.34375 -25.195312 11.363281 -25.390625 11.375 -25.578125 C 11.382812 -25.765625 11.390625 -25.945312 11.390625 -26.125 C 11.390625 -26.75 11.289062 -27.242188 11.09375 -27.609375 C 10.894531 -27.972656 10.53125 -28.304688 10 -28.609375 C 9.675781 -28.804688 9.515625 -28.957031 9.515625 -29.0625 C 9.515625 -29.15625 9.664062 -29.289062 9.96875 -29.46875 C 10.46875 -29.75 10.953125 -29.941406 11.421875 -30.046875 C 11.898438 -30.160156 12.378906 -30.21875 12.859375 -30.21875 C 13.785156 -30.21875 14.632812 -30.023438 15.40625 -29.640625 C 16.1875 -29.253906 16.832031 -28.789062 17.34375 -28.25 C 17.863281 -27.707031 18.1875 -27.203125 18.3125 -26.734375 C 18.332031 -26.628906 18.347656 -26.523438 18.359375 -26.421875 C 18.378906 -26.328125 18.390625 -26.242188 18.390625 -26.171875 C 18.390625 -25.890625 18.320312 -25.632812 18.1875 -25.40625 C 18.0625 -25.1875 17.90625 -24.898438 17.71875 -24.546875 C 17.53125 -24.191406 17.328125 -23.691406 17.109375 -23.046875 C 17.054688 -22.867188 16.988281 -22.65625 16.90625 -22.40625 C 16.832031 -22.15625 16.734375 -21.867188 16.609375 -21.546875 C 17.191406 -21.617188 17.722656 -21.65625 18.203125 -21.65625 C 19.972656 -21.65625 21.421875 -21.222656 22.546875 -20.359375 C 23.679688 -19.492188 24.445312 -18.132812 24.84375 -16.28125 C 25.070312 -15.28125 25.1875 -14.085938 25.1875 -12.703125 C 25.1875 -11.453125 25.085938 -10.128906 24.890625 -8.734375 C 24.691406 -7.347656 24.382812 -6.007812 23.96875 -4.71875 C 23.550781 -3.425781 23.03125 -2.289062 22.40625 -1.3125 C 21.78125 -0.332031 20.929688 0.410156 19.859375 0.921875 C 18.796875 1.429688 17.738281 1.6875 16.6875 1.6875 C 16.0625 1.6875 15.472656 1.59375 14.921875 1.40625 C 14.367188 1.21875 13.894531 0.9375 13.5 0.5625 C 13.25 0.332031 13.125 -0.015625 13.125 -0.484375 C 13.125 -0.835938 13.160156 -1.210938 13.234375 -1.609375 C 13.304688 -2.015625 13.34375 -2.441406 13.34375 -2.890625 C 13.34375 -3.421875 13.242188 -3.960938 13.046875 -4.515625 C 12.847656 -5.066406 12.421875 -5.578125 11.765625 -6.046875 Z M 36.234375 -10.71875 C 35.910156 -9.632812 35.410156 -8.84375 34.734375 -8.34375 C 34.054688 -7.84375 33.367188 -7.59375 32.671875 -7.59375 C 32.015625 -7.59375 31.421875 -7.789062 30.890625 -8.1875 C 30.367188 -8.59375 30.070312 -9.144531 30 -9.84375 C 29.925781 -10.625 29.613281 -11.335938 29.0625 -11.984375 C 28.507812 -12.640625 27.546875 -13.15625 26.171875 -13.53125 C 25.640625 -13.6875 25.375 -13.785156 25.375 -13.828125 C 25.375 -13.878906 25.648438 -13.929688 26.203125 -13.984375 C 26.628906 -14.035156 27.0625 -14.082031 27.5 -14.125 C 27.9375 -14.175781 28.359375 -14.253906 28.765625 -14.359375 C 29.660156 -14.554688 30.109375 -15.179688 30.109375 -16.234375 C 30.109375 -16.285156 30.109375 -16.335938 30.109375 -16.390625 C 30.109375 -16.441406 30.109375 -16.476562 30.109375 -16.5 C 30.015625 -17.707031 29.726562 -18.816406 29.25 -19.828125 C 28.769531 -20.847656 27.976562 -21.734375 26.875 -22.484375 C 26.425781 -22.828125 26.203125 -23.015625 26.203125 -23.046875 C 26.203125 -23.066406 26.238281 -23.078125 26.3125 -23.078125 C 26.46875 -23.078125 26.742188 -23.039062 27.140625 -22.96875 C 29.046875 -22.613281 30.707031 -21.976562 32.125 -21.0625 C 33.539062 -20.15625 34.640625 -19.035156 35.421875 -17.703125 C 36.210938 -16.378906 36.609375 -14.925781 36.609375 -13.34375 C 36.609375 -12.945312 36.578125 -12.519531 36.515625 -12.0625 C 36.453125 -11.613281 36.359375 -11.164062 36.234375 -10.71875 Z M 36.234375 -10.71875 "/></g></g></g><g fill="#ffffff" fill-opacity="1"><g transform="translate(247.155253, 41.827403)"><g><path d="M 12.78125 -4.921875 L 12.78125 -4.734375 C 12.78125 -4.179688 13.066406 -3.742188 13.640625 -3.421875 C 14.222656 -3.097656 14.929688 -2.875 15.765625 -2.75 C 16.609375 -2.625 17.421875 -2.5625 18.203125 -2.5625 C 18.171875 -3.457031 17.972656 -4.191406 17.609375 -4.765625 C 17.242188 -5.347656 16.796875 -5.773438 16.265625 -6.046875 C 15.742188 -6.328125 15.234375 -6.46875 14.734375 -6.46875 C 14.253906 -6.46875 13.820312 -6.332031 13.4375 -6.0625 C 13.050781 -5.800781 12.832031 -5.421875 12.78125 -4.921875 Z M 27.1875 -22.9375 L 27.1875 -22.78125 C 27.1875 -22.257812 27.015625 -21.882812 26.671875 -21.65625 C 26.335938 -21.425781 25.90625 -21.234375 25.375 -21.078125 C 24.851562 -20.929688 24.289062 -20.671875 23.6875 -20.296875 C 22.726562 -19.742188 21.820312 -19.21875 20.96875 -18.71875 C 20.125 -18.21875 19.28125 -17.671875 18.4375 -17.078125 C 17.601562 -16.492188 16.679688 -15.773438 15.671875 -14.921875 C 15.492188 -14.828125 15.40625 -14.753906 15.40625 -14.703125 C 15.40625 -14.703125 15.40625 -14.691406 15.40625 -14.671875 C 15.40625 -14.660156 15.421875 -14.65625 15.453125 -14.65625 C 15.523438 -14.65625 15.648438 -14.695312 15.828125 -14.78125 C 16.929688 -15.195312 18.039062 -15.507812 19.15625 -15.71875 C 20.269531 -15.9375 21.328125 -16.046875 22.328125 -16.046875 C 24.253906 -16.046875 26 -15.695312 27.5625 -15 C 29.132812 -14.300781 30.378906 -13.304688 31.296875 -12.015625 C 32.210938 -10.722656 32.671875 -9.175781 32.671875 -7.375 C 32.671875 -7.195312 32.660156 -6.992188 32.640625 -6.765625 C 32.628906 -6.535156 32.613281 -6.320312 32.59375 -6.125 C 32.445312 -4.75 31.988281 -3.546875 31.21875 -2.515625 C 30.457031 -1.492188 29.492188 -0.648438 28.328125 0.015625 C 27.160156 0.679688 25.882812 1.179688 24.5 1.515625 C 23.125 1.859375 21.738281 2.03125 20.34375 2.03125 C 18.6875 2.03125 17.125 1.796875 15.65625 1.328125 C 14.1875 0.867188 12.992188 0.195312 12.078125 -0.6875 C 11.171875 -1.582031 10.71875 -2.679688 10.71875 -3.984375 C 10.71875 -4.085938 10.722656 -4.175781 10.734375 -4.25 C 10.742188 -4.320312 10.75 -4.410156 10.75 -4.515625 C 10.851562 -5.492188 11.179688 -6.3125 11.734375 -6.96875 C 12.285156 -7.632812 12.96875 -8.132812 13.78125 -8.46875 C 14.59375 -8.8125 15.453125 -8.984375 16.359375 -8.984375 C 17.328125 -8.984375 18.269531 -8.78125 19.1875 -8.375 C 20.101562 -7.976562 20.898438 -7.375 21.578125 -6.5625 C 22.253906 -5.75 22.679688 -4.710938 22.859375 -3.453125 C 23.429688 -3.785156 23.941406 -4.238281 24.390625 -4.8125 C 24.847656 -5.382812 25.140625 -6.148438 25.265625 -7.109375 C 25.316406 -7.304688 25.34375 -7.5 25.34375 -7.6875 C 25.34375 -7.875 25.34375 -8.054688 25.34375 -8.234375 C 25.34375 -9.390625 25.082031 -10.367188 24.5625 -11.171875 C 24.050781 -11.972656 23.359375 -12.582031 22.484375 -13 C 21.609375 -13.425781 20.644531 -13.640625 19.59375 -13.640625 C 18.3125 -13.640625 16.992188 -13.304688 15.640625 -12.640625 C 14.285156 -11.984375 13.054688 -10.96875 11.953125 -9.59375 C 10.972656 -8.363281 10.132812 -7.441406 9.4375 -6.828125 C 8.738281 -6.210938 7.960938 -5.90625 7.109375 -5.90625 L 7.03125 -5.90625 C 6.300781 -5.90625 5.726562 -6.25 5.3125 -6.9375 C 4.90625 -7.625 4.703125 -8.394531 4.703125 -9.25 C 4.703125 -9.875 4.828125 -10.488281 5.078125 -11.09375 C 5.328125 -11.695312 5.703125 -12.171875 6.203125 -12.515625 C 7.535156 -13.441406 8.957031 -14.425781 10.46875 -15.46875 C 11.988281 -16.507812 13.519531 -17.691406 15.0625 -19.015625 C 16.601562 -20.347656 18.046875 -21.878906 19.390625 -23.609375 C 19.617188 -23.878906 19.734375 -24.101562 19.734375 -24.28125 C 19.734375 -24.488281 19.617188 -24.59375 19.390625 -24.59375 C 19.117188 -24.59375 18.832031 -24.488281 18.53125 -24.28125 C 17.28125 -23.507812 16.320312 -22.851562 15.65625 -22.3125 C 14.988281 -21.769531 14.492188 -21.335938 14.171875 -21.015625 C 13.847656 -20.691406 13.566406 -20.453125 13.328125 -20.296875 C 13.085938 -20.148438 12.769531 -20.050781 12.375 -20 L 12.140625 -20 C 11.585938 -20 11.015625 -20.160156 10.421875 -20.484375 C 9.835938 -20.816406 9.34375 -21.300781 8.9375 -21.9375 C 8.539062 -22.570312 8.34375 -23.328125 8.34375 -24.203125 C 8.34375 -24.628906 8.40625 -25.085938 8.53125 -25.578125 C 8.65625 -26.066406 8.84375 -26.585938 9.09375 -27.140625 C 9.269531 -27.390625 9.394531 -27.515625 9.46875 -27.515625 C 9.519531 -27.515625 9.625 -27.425781 9.78125 -27.25 C 10 -26.875 10.316406 -26.625 10.734375 -26.5 C 11.148438 -26.375 11.570312 -26.3125 12 -26.3125 C 12.195312 -26.3125 12.398438 -26.316406 12.609375 -26.328125 C 12.828125 -26.347656 13.023438 -26.367188 13.203125 -26.390625 C 13.921875 -26.441406 14.773438 -26.570312 15.765625 -26.78125 C 16.753906 -27 17.640625 -27.195312 18.421875 -27.375 C 18.992188 -27.5 19.539062 -27.671875 20.0625 -27.890625 C 20.59375 -28.117188 21.097656 -28.269531 21.578125 -28.34375 L 21.84375 -28.34375 C 22.445312 -28.34375 23.0625 -28.160156 23.6875 -27.796875 C 24.3125 -27.429688 24.882812 -26.96875 25.40625 -26.40625 C 25.9375 -25.84375 26.363281 -25.25 26.6875 -24.625 C 27.019531 -24 27.1875 -23.4375 27.1875 -22.9375 Z M 27.1875 -22.9375 "/></g></g></g><g fill="#ffffff" fill-opacity="1"><g transform="translate(277.224636, 41.827403)"><g><path d="M 31.125 1.3125 C 30.570312 1.414062 29.890625 1.507812 29.078125 1.59375 C 28.265625 1.6875 27.378906 1.734375 26.421875 1.734375 C 25.367188 1.734375 24.285156 1.65625 23.171875 1.5 C 22.054688 1.351562 21.019531 1.09375 20.0625 0.71875 C 19.113281 0.34375 18.328125 -0.171875 17.703125 -0.828125 C 16.828125 -1.773438 16.390625 -2.953125 16.390625 -4.359375 C 16.390625 -5.335938 16.632812 -6.316406 17.125 -7.296875 C 17.613281 -8.273438 18.359375 -9.085938 19.359375 -9.734375 C 19.410156 -9.765625 19.445312 -9.785156 19.46875 -9.796875 C 19.5 -9.804688 19.523438 -9.820312 19.546875 -9.84375 C 19.703125 -9.925781 19.828125 -9.96875 19.921875 -9.96875 C 19.972656 -9.96875 20 -9.941406 20 -9.890625 C 20 -9.785156 19.925781 -9.625 19.78125 -9.40625 C 19.601562 -9.144531 19.46875 -8.859375 19.375 -8.546875 C 19.289062 -8.234375 19.25 -7.941406 19.25 -7.671875 C 19.25 -6.691406 19.523438 -6.023438 20.078125 -5.671875 C 20.578125 -5.367188 21.132812 -5.15625 21.75 -5.03125 C 22.363281 -4.90625 23.019531 -4.84375 23.71875 -4.84375 C 24.570312 -4.84375 25.46875 -4.90625 26.40625 -5.03125 C 27.34375 -5.15625 28.273438 -5.304688 29.203125 -5.484375 C 29.359375 -5.515625 29.507812 -5.535156 29.65625 -5.546875 C 29.8125 -5.554688 29.953125 -5.5625 30.078125 -5.5625 C 30.878906 -5.5625 31.566406 -5.378906 32.140625 -5.015625 C 32.710938 -4.648438 33.15625 -4.179688 33.46875 -3.609375 C 33.789062 -3.035156 33.953125 -2.445312 33.953125 -1.84375 C 33.953125 -1.144531 33.722656 -0.492188 33.265625 0.109375 C 32.816406 0.710938 32.101562 1.113281 31.125 1.3125 Z M 21.875 -24.921875 L 22.03125 -24.921875 C 22.832031 -24.921875 23.476562 -24.675781 23.96875 -24.1875 C 24.457031 -23.695312 24.703125 -23.128906 24.703125 -22.484375 C 24.703125 -22.054688 24.578125 -21.625 24.328125 -21.1875 C 24.078125 -20.75 23.660156 -20.351562 23.078125 -20 C 22.273438 -19.519531 21.1875 -19.101562 19.8125 -18.75 C 18.4375 -18.40625 16.945312 -18.132812 15.34375 -17.9375 C 14.882812 -16.300781 14.390625 -14.523438 13.859375 -12.609375 C 13.335938 -10.691406 12.78125 -8.742188 12.1875 -6.765625 C 11.601562 -4.785156 10.988281 -2.867188 10.34375 -1.015625 C 10.007812 -0.0664062 9.492188 0.617188 8.796875 1.046875 C 8.097656 1.472656 7.421875 1.6875 6.765625 1.6875 C 6.210938 1.6875 5.75 1.5625 5.375 1.3125 C 4.769531 0.882812 4.320312 0.363281 4.03125 -0.25 C 3.75 -0.863281 3.609375 -1.519531 3.609375 -2.21875 C 3.609375 -3.25 3.882812 -4.1875 4.4375 -5.03125 C 5.164062 -6.132812 6.015625 -7.75 6.984375 -9.875 C 7.960938 -12.007812 8.878906 -14.617188 9.734375 -17.703125 C 8.304688 -17.878906 7.125 -18.332031 6.1875 -19.0625 C 5.25 -19.789062 4.585938 -20.894531 4.203125 -22.375 C 4.179688 -22.46875 4.164062 -22.550781 4.15625 -22.625 C 4.144531 -22.707031 4.140625 -22.769531 4.140625 -22.8125 C 4.140625 -22.96875 4.1875 -23.046875 4.28125 -23.046875 C 4.4375 -23.046875 4.601562 -22.984375 4.78125 -22.859375 C 5.425781 -22.503906 6.179688 -22.226562 7.046875 -22.03125 C 7.910156 -21.832031 8.921875 -21.734375 10.078125 -21.734375 L 10.671875 -21.734375 C 10.796875 -22.328125 10.910156 -22.9375 11.015625 -23.5625 C 11.117188 -24.195312 11.21875 -24.835938 11.3125 -25.484375 C 11.382812 -25.910156 11.421875 -26.300781 11.421875 -26.65625 C 11.421875 -27.882812 11.0625 -28.671875 10.34375 -29.015625 C 9.988281 -29.222656 9.8125 -29.375 9.8125 -29.46875 C 9.8125 -29.570312 10.007812 -29.6875 10.40625 -29.8125 C 11.082031 -30.039062 11.9375 -30.15625 12.96875 -30.15625 C 13.769531 -30.15625 14.570312 -30.0625 15.375 -29.875 C 16.175781 -29.6875 16.867188 -29.367188 17.453125 -28.921875 C 18.046875 -28.484375 18.40625 -27.90625 18.53125 -27.1875 C 18.5625 -27.101562 18.578125 -27.023438 18.578125 -26.953125 C 18.578125 -26.878906 18.578125 -26.816406 18.578125 -26.765625 C 18.578125 -26.441406 18.492188 -26.175781 18.328125 -25.96875 C 18.160156 -25.769531 17.96875 -25.550781 17.75 -25.3125 C 17.539062 -25.082031 17.351562 -24.726562 17.1875 -24.25 C 17.082031 -24 16.984375 -23.707031 16.890625 -23.375 C 16.804688 -23.050781 16.703125 -22.71875 16.578125 -22.375 C 16.929688 -22.46875 17.273438 -22.5625 17.609375 -22.65625 C 17.953125 -22.757812 18.25 -22.875 18.5 -23 C 18.800781 -23.15625 18.953125 -23.320312 18.953125 -23.5 C 18.953125 -23.644531 18.863281 -23.78125 18.6875 -23.90625 C 18.40625 -24.101562 18.101562 -24.332031 17.78125 -24.59375 C 17.601562 -24.71875 17.515625 -24.800781 17.515625 -24.84375 C 17.515625 -24.875 17.550781 -24.890625 17.625 -24.890625 C 17.675781 -24.890625 17.726562 -24.890625 17.78125 -24.890625 C 17.832031 -24.890625 17.894531 -24.875 17.96875 -24.84375 C 18.269531 -24.800781 18.550781 -24.765625 18.8125 -24.734375 C 19.070312 -24.710938 19.316406 -24.703125 19.546875 -24.703125 C 20.078125 -24.703125 20.53125 -24.738281 20.90625 -24.8125 C 21.28125 -24.882812 21.601562 -24.921875 21.875 -24.921875 Z M 31.5 -12.484375 C 31.175781 -12.484375 30.835938 -12.554688 30.484375 -12.703125 C 29.679688 -13.054688 28.957031 -13.234375 28.3125 -13.234375 C 27.851562 -13.234375 27.296875 -13.175781 26.640625 -13.0625 C 25.992188 -12.945312 25.097656 -12.789062 23.953125 -12.59375 C 23.867188 -12.570312 23.800781 -12.5625 23.75 -12.5625 C 23.707031 -12.5625 23.660156 -12.5625 23.609375 -12.5625 C 23.503906 -12.5625 23.453125 -12.582031 23.453125 -12.625 C 23.453125 -12.675781 23.566406 -12.78125 23.796875 -12.9375 C 24.347656 -13.3125 24.804688 -13.625 25.171875 -13.875 C 25.535156 -14.125 25.929688 -14.382812 26.359375 -14.65625 C 26.648438 -14.882812 26.796875 -15.097656 26.796875 -15.296875 C 26.796875 -15.523438 26.671875 -15.726562 26.421875 -15.90625 C 26.023438 -16.175781 25.53125 -16.410156 24.9375 -16.609375 C 24.351562 -16.816406 23.660156 -16.921875 22.859375 -16.921875 C 22.609375 -16.921875 22.335938 -16.90625 22.046875 -16.875 C 21.753906 -16.851562 21.460938 -16.816406 21.171875 -16.765625 C 21.085938 -16.742188 20.984375 -16.734375 20.859375 -16.734375 C 20.734375 -16.734375 20.671875 -16.769531 20.671875 -16.84375 C 20.671875 -16.914062 20.75 -17.03125 20.90625 -17.1875 C 21.832031 -18.113281 22.898438 -18.796875 24.109375 -19.234375 C 25.328125 -19.671875 26.523438 -19.890625 27.703125 -19.890625 C 28.804688 -19.890625 29.832031 -19.710938 30.78125 -19.359375 C 31.738281 -19.003906 32.492188 -18.488281 33.046875 -17.8125 C 33.421875 -17.363281 33.6875 -16.921875 33.84375 -16.484375 C 34.007812 -16.046875 34.09375 -15.625 34.09375 -15.21875 C 34.09375 -14.445312 33.828125 -13.796875 33.296875 -13.265625 C 32.773438 -12.742188 32.175781 -12.484375 31.5 -12.484375 Z M 31.5 -12.484375 "/></g></g></g><g fill="#ffffff" fill-opacity="1"><g transform="translate(83.554004, 40.032302)"><g><path d="M 19.28125 -11.484375 C 19.28125 -10.816406 19.113281 -10.207031 18.78125 -9.65625 C 18.445312 -9.101562 18.003906 -8.664062 17.453125 -8.34375 C 16.898438 -8.019531 16.28125 -7.859375 15.59375 -7.859375 C 14.9375 -7.859375 14.328125 -8.019531 13.765625 -8.34375 C 13.203125 -8.664062 12.753906 -9.101562 12.421875 -9.65625 C 12.085938 -10.207031 11.921875 -10.816406 11.921875 -11.484375 C 11.921875 -12.171875 12.085938 -12.789062 12.421875 -13.34375 C 12.753906 -13.894531 13.203125 -14.335938 13.765625 -14.671875 C 14.328125 -15.003906 14.9375 -15.171875 15.59375 -15.171875 C 16.28125 -15.171875 16.898438 -15.003906 17.453125 -14.671875 C 18.003906 -14.335938 18.445312 -13.894531 18.78125 -13.34375 C 19.113281 -12.789062 19.28125 -12.171875 19.28125 -11.484375 Z M 19.28125 -11.484375 "/></g></g></g></svg>